<?xml version="1.0" encoding="UTF-8" standalone="no"?>
<!-- Created with Inkscape (http://www.inkscape.org/) -->

<svg
   xmlns:dc="http://purl.org/dc/elements/1.1/"
   xmlns:cc="http://creativecommons.org/ns#"
   xmlns:rdf="http://www.w3.org/1999/02/22-rdf-syntax-ns#"
   xmlns:svg="http://www.w3.org/2000/svg"
   xmlns="http://www.w3.org/2000/svg"
   xmlns:sodipodi="http://sodipodi.sourceforge.net/DTD/sodipodi-0.dtd"
   xmlns:inkscape="http://www.inkscape.org/namespaces/inkscape"
   width="320"
   height="395"
   id="svg2988"
   version="1.1"
   inkscape:version="0.48.4 r9939"
   sodipodi:docname="nophoto.svg">
  <defs
     id="defs2990" />
  <sodipodi:namedview
     id="base"
     pagecolor="#ffffff"
     bordercolor="#666666"
     borderopacity="1.0"
     inkscape:pageopacity="0.0"
     inkscape:pageshadow="2"
     inkscape:zoom="0.98994949"
     inkscape:cx="222.18844"
     inkscape:cy="175.32143"
     inkscape:document-units="px"
     inkscape:current-layer="layer1"
     showgrid="false"
     inkscape:window-width="1366"
     inkscape:window-height="706"
     inkscape:window-x="-8"
     inkscape:window-y="-8"
     inkscape:window-maximized="1" />
  <metadata
     id="metadata2993">
    <rdf:RDF>
      <cc:Work
         rdf:about="">
        <dc:format>image/svg+xml</dc:format>
        <dc:type
           rdf:resource="http://purl.org/dc/dcmitype/StillImage" />
        <dc:title />
      </cc:Work>
    </rdf:RDF>
  </metadata>
  <g
     inkscape:label="Layer 1"
     inkscape:groupmode="layer"
     id="layer1"
     transform="translate(0,-657.36218)">
    <text
       xml:space="preserve"
       style="font-size:40px;font-style:normal;font-weight:normal;line-height:125%;letter-spacing:0px;word-spacing:0px;fill:#000000;fill-opacity:1;stroke:none;font-family:sans-serif"
       x="365.71429"
       y="372.36218"
       id="text2996"
       sodipodi:linespacing="125%"><tspan
         sodipodi:role="line"
         id="tspan2998"
         x="365.71429"
         y="372.36218" /></text>
    <rect
       style="fill:#ecf0f1;fill-opacity:1;stroke:none"
       id="rect3770"
       width="320"
       height="395"
       x="0"
       y="657.36218"
       inkscape:export-filename="C:\Users\Willy\Desktop\nophoto.svg.png"
       inkscape:export-xdpi="90"
       inkscape:export-ydpi="90" />
    <g
       id="g3811"
       transform="matrix(1.3361346,0,0,1.3361346,-440.85274,718.80501)"
       style="fill:#333333"
       inkscape:export-filename="C:\Users\Willy\Desktop\nophoto.svg.png"
       inkscape:export-xdpi="90"
       inkscape:export-ydpi="90">
      <path
         id="path3"
         d="m 499.57964,12.022824 h -93.443 c -2.05,0 -3.279,1.229 -3.279,3.279 v 59.836 c 0,2.049 1.229,3.278 3.279,3.278 h 93.442 c 2.05,0 3.278,-1.229 3.278,-3.278 v -59.836 c 10e-4,-2.05 -1.228,-3.279 -3.277,-3.279 z m -91.804,6.558 c 0,-1.025 0.614,-1.64 1.639,-1.64 h 86.886 c 1.025,0 1.639,0.615 1.639,1.64 v 53.278 c 0,0.244 -0.037,0.464 -0.104,0.659 -6.113,-6.281 -26.457,-26.889 -30.223,-26.889 -3.998,0 -25.335,23.205 -29.583,27.869 h -3.725 c 1.968,-2.322 4.827,-5.667 8.078,-9.368 -5.105,-4.131 -10.122,-7.844 -11.655,-7.844 -2.811,0 -16.778,12.475 -21.891,17.128 -0.67,-0.195 -1.06,-0.743 -1.06,-1.555 v -53.278 z"
         inkscape:connector-curvature="0"
         style="fill:#333333" />
      <path
         id="path5"
         d="m 440.97664,28.651824 c 4.612,0 8.352,3.737 8.352,8.349 0,4.612 -3.74,8.35 -8.352,8.35 -4.611,0 -8.351,-3.738 -8.351,-8.35 0.001,-4.611 3.74,-8.349 8.351,-8.349 z"
         inkscape:connector-curvature="0"
         style="fill:#333333" />
    </g>
    <text
       xml:space="preserve"
       style="font-size:40px;font-style:normal;font-weight:normal;line-height:125%;letter-spacing:0px;word-spacing:0px;fill:#1a1a1a;fill-opacity:1;stroke:none;font-family:sans-serif"
       x="97.631622"
       y="860.01703"
       id="text3815"
       sodipodi:linespacing="125%"
       inkscape:export-filename="C:\Users\Willy\Desktop\nophoto.svg.png"
       inkscape:export-xdpi="90"
       inkscape:export-ydpi="90"><tspan
         sodipodi:role="line"
         id="tspan3817"
         x="97.631622"
         y="860.01703"
         style="font-size:32px">No Photo</tspan></text>
    <text
       xml:space="preserve"
       style="font-size:40px;font-style:normal;font-weight:normal;line-height:125%;letter-spacing:0px;word-spacing:0px;fill:#000000;fill-opacity:1;stroke:none;font-family:sans-serif"
       x="85.753448"
       y="888.5072"
       id="text3819"
       sodipodi:linespacing="125%"
       inkscape:export-filename="C:\Users\Willy\Desktop\nophoto.svg.png"
       inkscape:export-xdpi="90"
       inkscape:export-ydpi="90"><tspan
         sodipodi:role="line"
         id="tspan3821"
         x="85.753448"
         y="888.5072"
         style="font-size:20px;font-weight:normal;fill:#1a1a1a;-inkscape-font-specification:sans-serif">Pick an image file.</tspan></text>
  </g>
</svg>
